<svg xmlns="http://www.w3.org/2000/svg" xmlns:xlink="http://www.w3.org/1999/xlink" width="727" height="959" viewBox="0 0 727 959">
  <defs>
    <clipPath id="clip-path">
      <rect id="Rectangle_111" data-name="Rectangle 111" width="727" height="959" transform="translate(1053 -23)" fill="#fff" stroke="#707070" stroke-width="1"/>
    </clipPath>
  </defs>
  <g id="Mask_Group_16" data-name="Mask Group 16" transform="translate(-1053 23)" clip-path="url(#clip-path)">
    <g id="Group_85" data-name="Group 85" transform="translate(1124.999 -6.001)">
      <rect id="Rectangle_95" data-name="Rectangle 95" width="51.45" height="300.574" transform="translate(245.551 47.34) rotate(-31.193)" fill="#fff"/>
      <rect id="Rectangle_96" data-name="Rectangle 96" width="300.529" height="51.447" transform="translate(568.435 291.845) rotate(-76.192)" fill="#fff"/>
      <rect id="Rectangle_97" data-name="Rectangle 97" width="300.571" height="51.45" transform="matrix(0.855, -0.518, 0.518, 0.855, 20.691, 710.437)" fill="#fff"/>
      <rect id="Rectangle_98" data-name="Rectangle 98" width="51.447" height="300.528" transform="translate(0.001 359.841) rotate(-76.193)" fill="#fff"/>
      <rect id="Rectangle_99" data-name="Rectangle 99" width="300.572" height="51.45" transform="translate(695.543 401.231) rotate(-31.194)" fill="#fff"/>
      <rect id="Rectangle_100" data-name="Rectangle 100" width="51.448" height="300.528" transform="translate(695.873 618.398) rotate(-76.193)" fill="#fff"/>
      <rect id="Rectangle_101" data-name="Rectangle 101" width="51.45" height="300.574" transform="translate(554.758 722.189) rotate(-31.193)" fill="#fff"/>
      <rect id="Rectangle_102" data-name="Rectangle 102" width="300.531" height="51.447" transform="matrix(0.239, -0.971, 0.971, 0.239, 309.873, 987.721)" fill="#fff"/>
      <rect id="Rectangle_103" data-name="Rectangle 103" width="278.254" height="51.445" transform="translate(568.179 428.149) rotate(-54.383)" fill="#fff"/>
      <rect id="Rectangle_104" data-name="Rectangle 104" width="51.443" height="278.253" transform="translate(452.029 126.453) rotate(-9.386)" fill="#fff"/>
      <rect id="Rectangle_105" data-name="Rectangle 105" width="51.451" height="278.254" transform="translate(201.938 269.784) rotate(-54.386)" fill="#fff"/>
      <rect id="Rectangle_106" data-name="Rectangle 106" width="278.25" height="51.448" transform="matrix(0.987, -0.163, 0.163, 0.987, 118.063, 497.211)" fill="#fff"/>
      <rect id="Rectangle_107" data-name="Rectangle 107" width="278.254" height="51.445" transform="matrix(0.582, -0.813, 0.813, 0.582, 227.952, 768.094)" fill="#fff"/>
      <rect id="Rectangle_108" data-name="Rectangle 108" width="51.443" height="278.253" transform="translate(451.833 607.41) rotate(-9.386)" fill="#fff"/>
      <rect id="Rectangle_109" data-name="Rectangle 109" width="51.452" height="278.25" transform="matrix(0.582, -0.813, 0.813, 0.582, 541.888, 610.011)" fill="#fff"/>
      <rect id="Rectangle_110" data-name="Rectangle 110" width="278.251" height="51.448" transform="translate(599.017 497.408) rotate(-9.386)" fill="#fff"/>
    </g>
  </g>
</svg>
